<svg width="28" height="27" viewBox="0 0 28 27" fill="none" xmlns="http://www.w3.org/2000/svg">
<path d="M9.84888 26.4445C10.9534 26.4445 11.8489 25.549 11.8489 24.4445C11.8489 23.3399 10.9534 22.4445 9.84888 22.4445C8.74431 22.4445 7.84888 23.3399 7.84888 24.4445C7.84888 25.549 8.74431 26.4445 9.84888 26.4445Z" fill="black"/>
<path d="M22 26.4445C23.1046 26.4445 24 25.549 24 24.4445C24 23.3399 23.1046 22.4445 22 22.4445C20.8954 22.4445 20 23.3399 20 24.4445C20 25.549 20.8954 26.4445 22 26.4445Z" fill="black"/>
<path d="M27.4044 2.77335C27.3217 2.67138 27.2174 2.589 27.0991 2.53214C26.9808 2.47527 26.8513 2.44533 26.72 2.44446H8.21332L8.7911 4.22223H25.5555L23.1822 14.8889H9.84888L5.78665 2.02668C5.74271 1.8902 5.66641 1.76637 5.56426 1.66576C5.4621 1.56516 5.33712 1.49075 5.19999 1.4489L1.55554 0.328901C1.44348 0.294465 1.32573 0.282439 1.20903 0.293509C1.09232 0.304579 0.97893 0.338528 0.875341 0.393417C0.666134 0.504272 0.509532 0.693694 0.439986 0.920012C0.370441 1.14633 0.393648 1.39101 0.504503 1.60021C0.615358 1.80942 0.804779 1.96602 1.0311 2.03557L4.22221 3.01335L8.30221 15.9022L6.84443 17.0933L6.72888 17.2089C6.36829 17.6245 6.1639 18.1527 6.15092 18.7028C6.13794 19.2528 6.31718 19.7901 6.65776 20.2222C6.90004 20.5169 7.2079 20.7507 7.55673 20.9051C7.90556 21.0594 8.28567 21.13 8.66665 21.1111H23.5022C23.738 21.1111 23.964 21.0175 24.1307 20.8508C24.2974 20.6841 24.3911 20.458 24.3911 20.2222C24.3911 19.9865 24.2974 19.7604 24.1307 19.5937C23.964 19.427 23.738 19.3333 23.5022 19.3333H8.52443C8.42207 19.3299 8.32235 19.3 8.23488 19.2467C8.14742 19.1934 8.07518 19.1185 8.02514 19.0291C7.9751 18.9398 7.94894 18.839 7.94921 18.7366C7.94948 18.6342 7.97615 18.5336 8.02665 18.4445L10.1689 16.6667H23.8933C24.0988 16.6717 24.2997 16.6054 24.4617 16.4789C24.6238 16.3525 24.7371 16.1739 24.7822 15.9733L27.6 3.5289C27.627 3.39638 27.6235 3.25945 27.5896 3.12851C27.5557 2.99758 27.4924 2.87611 27.4044 2.77335V2.77335Z" fill="black"/>
</svg>
