<svg width="10" height="8" viewBox="0 0 10 8" fill="none" xmlns="http://www.w3.org/2000/svg">
<path d="M4.15175 7.47309C4.10825 7.43071 3.92225 7.2707 3.76925 7.12165C2.807 6.24781 1.232 3.96822 0.751251 2.77508C0.674001 2.59389 0.5105 2.13578 0.500001 1.89101C0.500001 1.65648 0.554 1.4329 0.6635 1.21956C0.8165 0.953603 1.05725 0.740257 1.3415 0.623355C1.53875 0.548099 2.129 0.431197 2.1395 0.431197C2.78525 0.314295 3.8345 0.249999 4.994 0.249999C6.09875 0.249999 7.10525 0.314296 7.76075 0.410009C7.77125 0.420969 8.50475 0.537871 8.756 0.665733C9.215 0.900268 9.5 1.35838 9.5 1.84864L9.5 1.89101C9.48875 2.2103 9.20375 2.88176 9.19325 2.88176C8.71175 4.01059 7.214 6.23758 6.21875 7.13261C6.21875 7.13261 5.963 7.38468 5.80325 7.49428C5.57375 7.66525 5.2895 7.75 5.00525 7.75C4.688 7.75 4.3925 7.65429 4.15175 7.47309Z" fill="#FF5252"/>
</svg>
