<svg width="70" height="54" viewBox="0 0 70 54" fill="none" xmlns="http://www.w3.org/2000/svg">
<g clip-path="url(#clip0)">
<path d="M13.3096 52.7727V49.2836C13.3096 47.9458 12.492 47.0737 11.0905 47.0737C10.3899 47.0737 9.63076 47.3063 9.10517 48.0624C8.69662 47.4226 8.11278 47.0737 7.23689 47.0737C6.65278 47.0737 6.06921 47.248 5.60187 47.8878V47.19H4.37567V52.7727H5.60187V49.6905C5.60187 48.7021 6.12746 48.2367 6.9451 48.2367C7.76221 48.2367 8.1713 48.7601 8.1713 49.6905V52.7727H9.39749V49.6905C9.39749 48.7021 9.98107 48.2367 10.7402 48.2367C11.5578 48.2367 11.9664 48.7601 11.9664 49.6905V52.7727H13.3096ZM31.4688 47.19H29.4837V45.5036H28.2575V47.19H27.1481V48.2947H28.2572V50.8537C28.2572 52.1332 28.7828 52.889 30.1843 52.889C30.7099 52.889 31.2935 52.7147 31.7026 52.4821L31.352 51.4352C31.0017 51.6678 30.5931 51.726 30.3011 51.726C29.7172 51.726 29.4837 51.3772 29.4837 50.7954V48.2947H31.4688V47.19ZM41.8624 47.0735C41.1618 47.0735 40.6948 47.4226 40.4027 47.8878V47.19H39.1765V52.7727H40.4027V49.6325C40.4027 48.7021 40.8113 48.1787 41.5704 48.1787C41.8039 48.1787 42.096 48.2369 42.3295 48.295L42.6798 47.132C42.4463 47.0737 42.096 47.0735 41.8624 47.0735ZM26.1554 47.6552C25.5713 47.248 24.7539 47.0737 23.878 47.0737C22.4768 47.0737 21.5427 47.7715 21.5427 48.8764C21.5427 49.807 22.2433 50.3302 23.4695 50.5048L24.0533 50.5631C24.6957 50.6791 25.046 50.8537 25.046 51.1446C25.046 51.5515 24.5789 51.8423 23.7613 51.8423C22.9439 51.8423 22.3015 51.5515 21.8927 51.2609L21.3089 52.1912C21.9512 52.6564 22.8271 52.889 23.7028 52.889C25.3378 52.889 26.2722 52.1332 26.2722 51.0863C26.2722 50.0977 25.5131 49.5742 24.3451 49.3999L23.7613 49.3416C23.2357 49.2833 22.8271 49.1673 22.8271 48.8184C22.8271 48.4112 23.2357 48.1787 23.878 48.1787C24.5789 48.1787 25.2795 48.4693 25.6298 48.6438L26.1554 47.6552ZM58.7374 47.0737C58.0365 47.0737 57.5695 47.4226 57.2774 47.8878V47.19H56.0512V52.7727H57.2774V49.6325C57.2774 48.7021 57.6862 48.1787 58.4451 48.1787C58.6789 48.1787 58.9709 48.2369 59.2045 48.295L59.5548 47.132C59.3212 47.0737 58.9709 47.0737 58.7374 47.0737ZM43.0886 49.9814C43.0886 51.6678 44.2563 52.889 46.0666 52.889C46.884 52.889 47.4678 52.7147 48.0517 52.2495L47.4678 51.2609C47.0008 51.6098 46.5337 51.7841 46.0081 51.7841C45.0154 51.7841 44.3148 51.0863 44.3148 49.9814C44.3148 48.9347 45.0154 48.2367 46.0081 48.1787C46.5337 48.1787 47.0008 48.353 47.4678 48.7021L48.0517 47.7135C47.4678 47.248 46.884 47.0737 46.0666 47.0737C44.2563 47.0737 43.0886 48.295 43.0886 49.9814ZM54.4165 49.9814V47.19H53.1903V47.8878C52.7814 47.3646 52.1976 47.0737 51.4385 47.0737C49.862 47.0737 48.6358 48.295 48.6358 49.9814C48.6358 51.6678 49.862 52.889 51.4385 52.889C52.2559 52.889 52.84 52.5984 53.1903 52.0749V52.7727H54.4165V49.9814ZM49.9202 49.9814C49.9202 48.9927 50.5626 48.1787 51.6135 48.1787C52.6062 48.1787 53.307 48.9347 53.307 49.9814C53.307 50.97 52.6062 51.7841 51.6135 51.7841C50.5626 51.7258 49.9202 50.97 49.9202 49.9814ZM35.2644 47.0737C33.6294 47.0737 32.4614 48.2367 32.4614 49.9814C32.4614 51.726 33.6291 52.889 35.3226 52.889C36.14 52.889 36.9577 52.6564 37.6 52.1332L37.0159 51.2609C36.5488 51.6098 35.965 51.8423 35.3812 51.8423C34.622 51.8423 33.8629 51.4935 33.6876 50.5046H37.8335V50.0396C37.8921 48.2367 36.8412 47.0737 35.2644 47.0737ZM35.2644 48.1204C36.0232 48.1204 36.5491 48.5858 36.6656 49.4582H33.7461C33.8629 48.7021 34.3885 48.1204 35.2644 48.1204ZM65.6858 49.9814V44.9801H64.4596V47.8878C64.0507 47.3646 63.4669 47.0737 62.7078 47.0737C61.1313 47.0737 59.9051 48.295 59.9051 49.9814C59.9051 51.6678 61.1313 52.889 62.7078 52.889C63.5254 52.889 64.1093 52.5984 64.4596 52.0749V52.7727H65.6858V49.9814ZM61.1898 49.9814C61.1898 48.9927 61.8319 48.1787 62.8831 48.1787C63.8757 48.1787 64.5763 48.9347 64.5763 49.9814C64.5763 50.97 63.8757 51.7841 62.8831 51.7841C61.8319 51.7258 61.1898 50.97 61.1898 49.9814ZM20.1995 49.9814V47.19H18.9733V47.8878C18.5644 47.3646 17.9806 47.0737 17.2215 47.0737C15.645 47.0737 14.4188 48.295 14.4188 49.9814C14.4188 51.6678 15.645 52.889 17.2215 52.889C18.0391 52.889 18.623 52.5984 18.9733 52.0749V52.7727H20.1995V49.9814ZM15.645 49.9814C15.645 48.9927 16.2873 48.1787 17.3382 48.1787C18.3309 48.1787 19.0318 48.9347 19.0318 49.9814C19.0318 50.97 18.3309 51.7841 17.3382 51.7841C16.2873 51.7258 15.645 50.97 15.645 49.9814Z" fill="black"/>
<path d="M25.7466 4.79566H44.1395V37.7108H25.7466V4.79566Z" fill="#FF5F00"/>
<path d="M26.9145 21.2534C26.9145 14.5657 30.0675 8.63392 34.9138 4.79566C31.3522 2.00432 26.8563 0.317917 21.9515 0.317917C10.3314 0.317917 0.930603 9.68057 0.930603 21.2534C0.930603 32.8259 10.3314 42.1888 21.9512 42.1888C26.856 42.1888 31.352 40.5024 34.9138 37.7108C30.0675 33.9308 26.9145 27.941 26.9145 21.2534Z" fill="#EB001B"/>
<path d="M68.9556 21.2534C68.9556 32.8259 59.5548 42.1888 47.9349 42.1888C43.0301 42.1888 38.5342 40.5024 34.9724 37.7108C39.8771 33.8728 42.9719 27.941 42.9719 21.2534C42.9719 14.5657 39.8186 8.63392 34.9724 4.79566C38.5339 2.00432 43.0301 0.317917 47.9349 0.317917C59.5548 0.317917 68.9558 9.73885 68.9558 21.2534H68.9556Z" fill="#F79E1B"/>
</g>
<defs>
<clipPath id="clip0">
<rect width="68.0925" height="52.7168" fill="white" transform="translate(0.930603 0.317917)"/>
</clipPath>
</defs>
</svg>
