<svg width="30" height="30" viewBox="0 0 30 30" fill="none" xmlns="http://www.w3.org/2000/svg">
<path d="M29.4625 17.187C29.4625 16.718 29.348 16.212 29.086 15.701C29.15 15.4885 29.196 15.274 29.231 15.059C29.346 14.9905 29.4585 14.9065 29.559 14.795C30.229 14.0485 29.989 12.596 29.7865 11.7965C29.7656 11.7168 29.734 11.6402 29.6925 11.569C29.754 11.343 29.7865 11.107 29.7865 10.8605C29.787 4.8715 23.154 0 15 0C6.846 0 0.213003 4.8715 0.213003 10.8605C0.213003 11.1065 0.246003 11.343 0.307003 11.569C0.265917 11.6398 0.234472 11.7158 0.213503 11.795C0.0110027 12.594 -0.228997 14.044 0.438003 14.7895C0.504003 15.189 0.615003 15.5905 0.784003 15.988C0.625297 16.3678 0.541918 16.7749 0.538503 17.1865C0.538503 17.5685 0.574503 17.939 0.640003 18.301C0.387802 18.8905 0.256868 19.5248 0.255003 20.166C0.255503 24.6525 2.8135 30 15 30C27.1865 30 29.7445 24.6525 29.7445 20.1665C29.7426 19.5255 29.6119 18.8914 29.36 18.302C29.426 17.94 29.4625 17.569 29.4625 17.187V17.187ZM28.787 10.8605C28.787 13.385 23.2465 15.081 15 15.081C6.7535 15.081 1.213 13.3845 1.213 10.8605C1.213 5.4055 7.398 0.968 15 0.968C22.602 0.968 28.787 5.4055 28.787 10.8605V10.8605ZM15 29.032C5.8795 29.032 1.255 26.0495 1.255 20.1665C1.255 20.1125 1.256 20.058 1.2585 20.004C3.1165 23.7225 7.7285 25.605 15.0005 25.605C22.272 25.605 26.883 23.723 28.7415 20.0055C28.7435 20.059 28.7445 20.113 28.7445 20.1665C28.7445 26.05 24.1205 29.032 15 29.032ZM28.7255 16.903L28.72 16.8925L28.6955 16.983C27.4935 19.954 23.719 22.0105 16.3565 22.233L13.9235 24.6185C13.8515 24.617 13.776 24.617 13.7045 24.615L11.026 22.0605C5.3875 21.4755 2.369 19.59 1.3105 17.005L1.28 16.893L1.271 16.912C1.26 16.8835 1.246 16.8565 1.2355 16.828C2.0285 18.07 3.401 19.238 5.5525 20.154C7.2405 20.873 8.7375 21.153 10.036 21.116L7.962 19.138C7.30784 18.9699 6.66761 18.7515 6.047 18.485C5.30886 18.1748 4.60242 17.794 3.9375 17.348C4.1005 17.406 4.271 17.4455 4.4575 17.4455C4.8555 17.4455 5.2405 17.31 5.58 17.19C5.683 17.154 5.83 17.102 5.947 17.069C5.999 17.1605 6.057 17.2735 6.101 17.3605C6.35 17.8485 6.69 18.5155 7.4055 18.7215C7.535 18.758 7.6705 18.777 7.809 18.777C8.3305 18.777 8.78 18.5165 9.1765 18.287C9.2705 18.232 9.3955 18.16 9.498 18.1085C9.5645 18.19 9.6395 18.2925 9.697 18.371C10.0175 18.806 10.4565 19.402 11.181 19.4965C11.2435 19.505 11.305 19.5085 11.367 19.5085C11.986 19.5085 12.4755 19.121 12.869 18.809C12.952 18.743 13.0605 18.6565 13.152 18.5915C13.2295 18.6645 13.319 18.7565 13.388 18.8275C13.783 19.234 14.275 19.741 15.0005 19.741C15.726 19.741 16.2175 19.2345 16.613 18.8275C16.682 18.7565 16.771 18.6645 16.849 18.5915C16.941 18.6565 17.049 18.743 17.132 18.8085C17.525 19.1205 18.015 19.5085 18.634 19.5085C18.6955 19.5085 18.758 19.5045 18.819 19.497C18.9845 19.4751 19.1451 19.4259 19.2945 19.3515L18.1115 20.512C19.3975 20.8115 20.958 20.825 22.8145 20.4195C26.493 19.6165 28.368 17.8215 29.027 15.8735C28.9589 16.2253 28.8579 16.57 28.7255 16.903V16.903ZM1.82 15.307L1.887 15.3075C2.002 15.3075 2.122 15.303 2.243 15.2995C2.343 15.2955 2.4435 15.2915 2.542 15.2915C2.5925 15.2915 2.6335 15.293 2.667 15.2945C2.697 15.395 2.728 15.5235 2.7515 15.6215C2.8415 15.993 2.9585 16.456 3.237 16.829C2.6485 16.3455 2.178 15.8345 1.82 15.307V15.307ZM19.6215 19.1375C19.8995 18.9135 20.1155 18.6255 20.304 18.37C20.3625 18.2915 20.438 18.189 20.504 18.1075C20.606 18.1595 20.73 18.231 20.8245 18.286C21.2205 18.516 21.669 18.776 22.191 18.776C22.329 18.776 22.465 18.757 22.5945 18.7205C23.31 18.5145 23.6505 17.847 23.899 17.359C23.9435 17.272 24.001 17.1595 24.053 17.0685C24.17 17.101 24.3175 17.1535 24.42 17.1895C24.76 17.309 25.1445 17.445 25.543 17.445C25.6535 17.445 25.758 17.4295 25.861 17.409C24.919 18.0135 23.718 18.5105 22.21 18.8395C21.3599 19.0287 20.4924 19.1286 19.6215 19.1375V19.1375ZM26.916 16.59C27.0875 16.2705 27.176 15.9185 27.2475 15.6235C27.271 15.526 27.302 15.397 27.3315 15.297C27.3645 15.295 27.405 15.294 27.454 15.294C27.553 15.294 27.6545 15.298 27.7555 15.301C27.822 15.3035 27.886 15.304 27.9515 15.306C27.6681 15.7803 27.3195 16.2126 26.916 16.59V16.59ZM28.8375 14.1485C28.693 14.309 28.4225 14.342 28.115 14.342C27.903 14.342 27.6725 14.3265 27.455 14.3265C27.1595 14.3265 26.885 14.355 26.703 14.488C26.2405 14.8265 26.3565 16.1285 25.797 16.4225C25.7225 16.461 25.6375 16.4775 25.5435 16.4775C25.073 16.4775 24.396 16.069 23.8975 16.0685C23.8155 16.0669 23.7339 16.0808 23.657 16.1095C23.114 16.3225 22.9235 17.619 22.326 17.7905C22.2822 17.8028 22.237 17.8089 22.1915 17.8085C21.6655 17.8085 20.944 17.0775 20.394 17.0775C20.3565 17.0775 20.32 17.081 20.2835 17.088C19.7055 17.205 19.305 18.4555 18.6935 18.536C18.674 18.538 18.6535 18.5395 18.634 18.5395C18.0675 18.5395 17.393 17.5475 16.807 17.5475L16.7755 17.5485C16.1815 17.586 15.6145 18.772 15.001 18.772C14.387 18.772 13.821 17.586 13.227 17.5485C13.2163 17.5479 13.2057 17.5476 13.195 17.5475C12.609 17.5475 11.934 18.5395 11.368 18.5395C11.3481 18.5396 11.3282 18.5384 11.3085 18.536C10.697 18.4555 10.298 17.205 9.7185 17.088C9.68213 17.0807 9.6451 17.0772 9.608 17.0775C9.058 17.0775 8.336 17.8085 7.8095 17.8085C7.76404 17.8089 7.71876 17.8028 7.675 17.7905C7.077 17.6185 6.8865 16.3215 6.343 16.1095C6.26613 16.0808 6.18454 16.0669 6.1025 16.0685C5.6045 16.0685 4.9285 16.477 4.458 16.477C4.364 16.477 4.278 16.4605 4.203 16.4215C3.644 16.1265 3.7585 14.8245 3.2975 14.487C3.114 14.3525 2.8385 14.3245 2.5425 14.3245C2.3255 14.3245 2.0975 14.34 1.887 14.34C1.578 14.34 1.3065 14.3075 1.162 14.1455C0.934003 13.8915 0.949503 13.301 1.0125 12.8085C3.1485 15.1605 9.233 16.0485 15.0005 16.0485C20.7685 16.0485 26.8525 15.1605 28.988 12.8085C29.051 13.302 29.066 13.8935 28.8375 14.1485" fill="#2F2D3D"/>
<path d="M6.48849 6.78499L5.73149 6.05899L4.97449 6.78499L5.73149 7.51049L6.48849 6.78499Z" fill="#2F2D3D"/>
<path d="M9.46351 6.318L10.22 5.592L9.46351 4.866L8.70651 5.592L9.46351 6.318Z" fill="#2F2D3D"/>
<path d="M12.338 8.90651L11.5815 8.18051L10.8245 8.90651L11.5815 9.63201L12.338 8.90651Z" fill="#2F2D3D"/>
<path d="M14.9545 6.3015L14.4505 5.8175L13.9455 6.3015L14.4505 6.785L14.9545 6.3015Z" fill="#2F2D3D"/>
<path d="M23.3235 8.18049L23.8285 8.66399L24.3335 8.18049L23.8285 7.69699L23.3235 8.18049Z" fill="#2F2D3D"/>
<path d="M27.3975 8.66401L26.893 8.18051L26.388 8.66401L26.893 9.14801L27.3975 8.66401Z" fill="#2F2D3D"/>
<path d="M21.568 5.10799L21.064 4.62399L20.559 5.10799L21.064 5.59199L21.568 5.10799Z" fill="#2F2D3D"/>
<path d="M6.30401 4.5035L5.80001 4.0195L5.29501 4.5035L5.80001 4.9875L6.30401 4.5035Z" fill="#2F2D3D"/>
<path d="M3.612 6.78501L3.1075 6.30151L2.603 6.78501L3.1075 7.26901L3.612 6.78501Z" fill="#2F2D3D"/>
<path d="M5.73151 9.98L6.23651 10.464L6.74051 9.98L6.23651 9.496L5.73151 9.98Z" fill="#2F2D3D"/>
<path d="M12.59 2.56802L12.086 2.08401L11.5815 2.56802L12.086 3.05202L12.59 2.56802Z" fill="#2F2D3D"/>
<path d="M17.353 2.08401L16.849 1.60001L16.344 2.08401L16.849 2.56801L17.353 2.08401Z" fill="#2F2D3D"/>
<path d="M9.463 3.05199L8.959 2.56799L8.4545 3.05199L8.959 3.53549L9.463 3.05199Z" fill="#2F2D3D"/>
<path d="M23.7955 4.20051L23.2915 3.71701L22.7865 4.20051L23.2915 4.68451L23.7955 4.20051Z" fill="#2F2D3D"/>
<path d="M17.606 11.0065L18.3625 10.2805L17.606 9.5545L16.8485 10.2805L17.606 11.0065Z" fill="#2F2D3D"/>
<path d="M17.177 6.55952L16.4205 5.83401L15.6635 6.55952L16.4205 7.28551L17.177 6.55952Z" fill="#2F2D3D"/>
<path d="M19.9655 3.7775L19.209 3.052L18.4515 3.7775L19.209 4.5035L19.9655 3.7775Z" fill="#2F2D3D"/>
<path d="M20.6335 6.88301L21.39 7.60901L22.147 6.88301L21.39 6.15701L20.6335 6.88301Z" fill="#2F2D3D"/>
<path d="M25.3425 5.834L24.5855 5.108L23.8285 5.834L24.5855 6.5595L25.3425 5.834Z" fill="#2F2D3D"/>
<path d="M22.147 10.81L22.904 10.0845L22.147 9.35849L21.39 10.0845L22.147 10.81Z" fill="#2F2D3D"/>
<path d="M3.10699 8.8285L3.8645 9.5545L4.621 8.8285L3.8645 8.103L3.10699 8.8285Z" fill="#2F2D3D"/>
</svg>
