<svg width="25" height="28" viewBox="0 0 25 28" fill="none" xmlns="http://www.w3.org/2000/svg">
<path d="M6.74999 12.3034C7.08701 12.3034 7.41023 12.1695 7.64854 11.9312C7.88686 11.6929 8.02074 11.3697 8.02074 11.0327C8.02074 10.6956 7.88686 10.3724 7.64854 10.1341C7.41023 9.89579 7.08701 9.76191 6.74999 9.76191C6.41296 9.76191 6.08974 9.89579 5.85143 10.1341C5.61312 10.3724 5.47924 10.6956 5.47924 11.0327C5.47924 11.3697 5.61312 11.6929 5.85143 11.9312C6.08974 12.1695 6.41296 12.3034 6.74999 12.3034ZM13.0791 14.4335C13.0791 14.7705 12.9452 15.0938 12.7069 15.3321C12.4686 15.5704 12.1454 15.7043 11.8083 15.7043C11.4713 15.7043 11.1481 15.5704 10.9098 15.3321C10.6715 15.0938 10.5376 14.7705 10.5376 14.4335C10.5376 14.0965 10.6715 13.7733 10.9098 13.535C11.1481 13.2966 11.4713 13.1628 11.8083 13.1628C12.1454 13.1628 12.4686 13.2966 12.7069 13.535C12.9452 13.7733 13.0791 14.0965 13.0791 14.4335ZM6.75679 19.9636C6.92445 19.9636 7.09046 19.9306 7.24536 19.8664C7.40026 19.8023 7.541 19.7082 7.65955 19.5897C7.7781 19.4711 7.87215 19.3304 7.93631 19.1755C8.00047 19.0206 8.03349 18.8546 8.03349 18.6869C8.03349 18.5193 8.00047 18.3532 7.93631 18.1983C7.87215 18.0434 7.7781 17.9027 7.65955 17.7841C7.541 17.6656 7.40026 17.5716 7.24536 17.5074C7.09046 17.4432 6.92445 17.4102 6.75679 17.4102C6.41819 17.4102 6.09345 17.5447 5.85402 17.7841C5.6146 18.0236 5.48009 18.3483 5.48009 18.6869C5.48009 19.0255 5.6146 19.3502 5.85402 19.5897C6.09345 19.8291 6.41819 19.9636 6.75679 19.9636ZM0.799988 3.72521C0.799988 1.86371 2.32149 0.287811 4.25099 0.406811C11.8109 0.872611 18.4409 3.41581 23.6344 8.37471C25.1083 9.78061 24.8176 12.0773 23.2893 13.2503C20.9111 15.0863 18.5168 16.9014 16.1068 18.6954V21.6534C16.1068 22.8723 15.1633 24.2034 13.5568 24.2034C13.2491 24.2034 12.9652 24.1524 12.7102 24.0674V24.2085C12.7102 25.4206 11.765 26.7432 10.1551 26.7432C8.87329 26.7432 8.02839 25.9 7.73089 24.9582C6.79929 25.6552 5.78099 26.4134 4.87149 27.09C3.18849 28.3429 0.799988 27.141 0.799988 25.05V3.72521ZM12.7085 21.6534C12.7085 22.0937 13.04 22.5034 13.5568 22.5034C14.0753 22.5034 14.4068 22.0903 14.4068 21.6534V18.2636C14.4069 18.1296 14.4387 17.9976 14.4995 17.8782C14.5604 17.7589 14.6486 17.6556 14.757 17.5768C16.083 16.6146 18.3406 14.8993 20.3398 13.371C15.7617 9.01391 9.34419 6.42821 2.49999 6.37381V25.0483C2.50046 25.2056 2.54455 25.3597 2.62737 25.4934C2.71019 25.6271 2.82849 25.7352 2.96909 25.8057C3.1097 25.8761 3.2671 25.9062 3.42378 25.8926C3.58047 25.8789 3.73029 25.8221 3.85659 25.7283C5.19279 24.7321 6.76869 23.5591 7.95189 22.6717C8.07817 22.577 8.22834 22.5193 8.38555 22.5051C8.54277 22.491 8.70083 22.5209 8.84202 22.5914C8.98321 22.662 9.10195 22.7706 9.18494 22.9048C9.26793 23.0391 9.31189 23.1939 9.31189 23.3517V24.2085C9.31189 24.6284 9.63489 25.0449 10.1551 25.0449C10.2665 25.0476 10.3773 25.028 10.4809 24.9871C10.5846 24.9463 10.679 24.8851 10.7586 24.8071C10.8381 24.7291 10.9013 24.6359 10.9442 24.5331C10.9871 24.4303 11.009 24.3199 11.0085 24.2085V21.6534C11.0085 21.428 11.098 21.2118 11.2574 21.0524C11.4169 20.893 11.6331 20.8034 11.8585 20.8034C12.0839 20.8034 12.3001 20.893 12.4595 21.0524C12.6189 21.2118 12.7085 21.428 12.7085 21.6534ZM22.2523 11.9039C23.0428 11.297 23.1023 10.2158 22.4597 9.60211C17.6028 4.96621 11.3757 2.54711 4.14729 2.10171C3.26499 2.04731 2.49999 2.77151 2.49999 3.72521V4.67381C9.85589 4.72991 16.7834 7.54171 21.7049 12.3238L22.2523 11.9039Z" fill="black"/>
</svg>
