<svg width="18" height="20" viewBox="0 0 18 20" fill="none" xmlns="http://www.w3.org/2000/svg">
<path d="M10.2525 0C10.5099 0 10.7079 0.21 10.7079 0.46V3.68C10.7079 5.51 12.203 7.01 14.0149 7.02C14.7673 7.02 15.3614 7.03 15.8168 7.03L15.9855 7.02926C16.2899 7.02694 16.6997 7.02 17.0545 7.02C17.302 7.02 17.5 7.22 17.5 7.47V15.51C17.5 17.99 15.5099 20 13.0545 20H5.17327C2.59901 20 0.5 17.89 0.5 15.29V4.51C0.5 2.03 2.5 0 4.96535 0H10.2525ZM11.3119 12.9H5.92574C5.5198 12.9 5.18317 13.23 5.18317 13.64C5.18317 14.05 5.5198 14.39 5.92574 14.39H11.3119C11.7178 14.39 12.0545 14.05 12.0545 13.64C12.0545 13.23 11.7178 12.9 11.3119 12.9ZM9.27228 7.9H5.92574C5.5198 7.9 5.18317 8.24 5.18317 8.65C5.18317 9.06 5.5198 9.39 5.92574 9.39H9.27228C9.67822 9.39 10.0149 9.06 10.0149 8.65C10.0149 8.24 9.67822 7.9 9.27228 7.9ZM12.1507 0.906C12.1507 0.475 12.6685 0.261 12.9646 0.572C14.0349 1.696 15.9051 3.661 16.9507 4.759C17.2398 5.062 17.0279 5.565 16.6111 5.566C15.7972 5.569 14.8378 5.566 14.1477 5.559C13.0527 5.559 12.1507 4.648 12.1507 3.542V0.906Z" fill="#F4B81D"/>
</svg>
