<svg width="10" height="16" viewBox="0 0 10 16" fill="none" xmlns="http://www.w3.org/2000/svg">
<path d="M9.06667 0.399992C8.9699 0.302986 8.85496 0.226021 8.7284 0.173508C8.60185 0.120994 8.46618 0.0939636 8.32917 0.0939636C8.19215 0.0939636 8.05648 0.120994 7.92993 0.173508C7.80338 0.226021 7.68843 0.302986 7.59167 0.399992L0.583333 7.40833C0.50608 7.48542 0.444791 7.57699 0.402973 7.67781C0.361155 7.77862 0.33963 7.88669 0.33963 7.99583C0.33963 8.10497 0.361155 8.21303 0.402973 8.31385C0.444791 8.41466 0.50608 8.50623 0.583333 8.58333L7.59167 15.5917C8 16 8.65833 16 9.06667 15.5917C9.475 15.1833 9.475 14.525 9.06667 14.1167L2.95 7.99999L9.075 1.87499C9.475 1.46666 9.475 0.808326 9.06667 0.399992Z" fill="#2F2D3D"/>
</svg>
