<svg width="10" height="8" viewBox="0 0 10 8" fill="none" xmlns="http://www.w3.org/2000/svg">
<path d="M5.84825 0.526912C5.89175 0.569289 6.07775 0.729299 6.23075 0.878349C7.193 1.75219 8.768 4.03178 9.24875 5.22491C9.326 5.40611 9.4895 5.86422 9.5 6.10899C9.5 6.34352 9.446 6.5671 9.3365 6.78044C9.1835 7.0464 8.94275 7.25974 8.6585 7.37664C8.46125 7.4519 7.871 7.5688 7.8605 7.5688C7.21475 7.6857 6.1655 7.75 5.006 7.75C3.90125 7.75 2.89475 7.6857 2.23925 7.58999C2.22875 7.57903 1.49525 7.46213 1.244 7.33427C0.785 7.09973 0.5 6.64162 0.5 6.15136V6.10899C0.51125 5.7897 0.79625 5.11824 0.80675 5.11824C1.28825 3.98941 2.786 1.76242 3.78125 0.867389C3.78125 0.867389 4.037 0.615319 4.19675 0.505723C4.42625 0.334754 4.7105 0.25 4.99475 0.25C5.312 0.25 5.6075 0.345714 5.84825 0.526912Z" fill="#40D861"/>
</svg>
